<svg width="276" height="61" viewBox="0 0 276 61" fill="none" xmlns="http://www.w3.org/2000/svg">
<rect x="25" y="0.5" width="250" height="60" rx="10" stroke="#FFB72B"/>
<path d="M79.696 17.06H75.984V26.5H73.92V17.06H70.224V15.3H79.696V17.06ZM84.1989 26.612C83.3349 26.612 82.5562 26.4253 81.8629 26.052C81.1695 25.6787 80.6255 25.1613 80.2309 24.5C79.8469 23.828 79.6549 23.0707 79.6549 22.228C79.6549 21.3853 79.8469 20.6333 80.2309 19.972C80.6255 19.3107 81.1695 18.7933 81.8629 18.42C82.5562 18.0467 83.3349 17.86 84.1989 17.86C85.0735 17.86 85.8575 18.0467 86.5509 18.42C87.2442 18.7933 87.7829 19.3107 88.1669 19.972C88.5615 20.6333 88.7589 21.3853 88.7589 22.228C88.7589 23.0707 88.5615 23.828 88.1669 24.5C87.7829 25.1613 87.2442 25.6787 86.5509 26.052C85.8575 26.4253 85.0735 26.612 84.1989 26.612ZM84.1989 24.9C84.9349 24.9 85.5429 24.6547 86.0229 24.164C86.5029 23.6733 86.7429 23.028 86.7429 22.228C86.7429 21.428 86.5029 20.7827 86.0229 20.292C85.5429 19.8013 84.9349 19.556 84.1989 19.556C83.4629 19.556 82.8549 19.8013 82.3749 20.292C81.9055 20.7827 81.6709 21.428 81.6709 22.228C81.6709 23.028 81.9055 23.6733 82.3749 24.164C82.8549 24.6547 83.4629 24.9 84.1989 24.9ZM98.3849 17.956V26.5H96.3849V19.652H93.1849L93.1049 21.348C93.0515 22.4787 92.9449 23.428 92.7849 24.196C92.6355 24.9533 92.3742 25.556 92.0009 26.004C91.6382 26.4413 91.1369 26.66 90.4969 26.66C90.1982 26.66 89.8302 26.6013 89.3929 26.484L89.4889 24.804C89.6382 24.836 89.7662 24.852 89.8729 24.852C90.2782 24.852 90.5822 24.692 90.7849 24.372C90.9875 24.0413 91.1155 23.652 91.1689 23.204C91.2329 22.7453 91.2862 22.0947 91.3289 21.252L91.4729 17.956H98.3849ZM105.366 20.772C106.454 20.772 107.286 21.0173 107.862 21.508C108.449 21.9987 108.742 22.692 108.742 23.588C108.742 24.5267 108.422 25.252 107.782 25.764C107.142 26.276 106.241 26.5267 105.078 26.516L101.078 26.5V17.956H103.078V20.756L105.366 20.772ZM104.902 25.044C105.489 25.0547 105.937 24.932 106.246 24.676C106.556 24.42 106.71 24.0467 106.71 23.556C106.71 23.076 106.561 22.724 106.262 22.5C105.964 22.276 105.51 22.1587 104.902 22.148L103.078 22.132V25.028L104.902 25.044ZM114.052 23.076H112.5V26.5H110.5V17.956H112.5V21.412H114.1L116.628 17.956H118.772L115.668 22.068L118.98 26.5H116.628L114.052 23.076ZM123.918 26.612C123.054 26.612 122.275 26.4253 121.582 26.052C120.888 25.6787 120.344 25.1613 119.95 24.5C119.566 23.828 119.374 23.0707 119.374 22.228C119.374 21.3853 119.566 20.6333 119.95 19.972C120.344 19.3107 120.888 18.7933 121.582 18.42C122.275 18.0467 123.054 17.86 123.918 17.86C124.792 17.86 125.576 18.0467 126.27 18.42C126.963 18.7933 127.502 19.3107 127.886 19.972C128.28 20.6333 128.478 21.3853 128.478 22.228C128.478 23.0707 128.28 23.828 127.886 24.5C127.502 25.1613 126.963 25.6787 126.27 26.052C125.576 26.4253 124.792 26.612 123.918 26.612ZM123.918 24.9C124.654 24.9 125.262 24.6547 125.742 24.164C126.222 23.6733 126.462 23.028 126.462 22.228C126.462 21.428 126.222 20.7827 125.742 20.292C125.262 19.8013 124.654 19.556 123.918 19.556C123.182 19.556 122.574 19.8013 122.094 20.292C121.624 20.7827 121.39 21.428 121.39 22.228C121.39 23.028 121.624 23.6733 122.094 24.164C122.574 24.6547 123.182 24.9 123.918 24.9ZM143.067 17.956V26.5H141.083V19.652H136.875V26.5H134.875V17.956H143.067ZM150.502 17.86C151.334 17.86 152.075 18.0413 152.726 18.404C153.387 18.7667 153.905 19.2787 154.278 19.94C154.651 20.6013 154.838 21.364 154.838 22.228C154.838 23.092 154.651 23.86 154.278 24.532C153.905 25.1933 153.387 25.7053 152.726 26.068C152.075 26.4307 151.334 26.612 150.502 26.612C149.35 26.612 148.438 26.228 147.766 25.46V29.604H145.766V17.956H147.67V19.076C148.001 18.6707 148.406 18.3667 148.886 18.164C149.377 17.9613 149.915 17.86 150.502 17.86ZM150.278 24.9C151.014 24.9 151.617 24.6547 152.086 24.164C152.566 23.6733 152.806 23.028 152.806 22.228C152.806 21.428 152.566 20.7827 152.086 20.292C151.617 19.8013 151.014 19.556 150.278 19.556C149.798 19.556 149.366 19.668 148.982 19.892C148.598 20.1053 148.294 20.4147 148.07 20.82C147.846 21.2253 147.734 21.6947 147.734 22.228C147.734 22.7613 147.846 23.2307 148.07 23.636C148.294 24.0413 148.598 24.356 148.982 24.58C149.366 24.7933 149.798 24.9 150.278 24.9ZM164.828 22.276C164.828 22.4147 164.818 22.612 164.796 22.868H158.092C158.21 23.4973 158.514 23.9987 159.004 24.372C159.506 24.7347 160.124 24.916 160.86 24.916C161.799 24.916 162.572 24.6067 163.18 23.988L164.252 25.22C163.868 25.6787 163.383 26.0253 162.796 26.26C162.21 26.4947 161.548 26.612 160.812 26.612C159.874 26.612 159.047 26.4253 158.332 26.052C157.618 25.6787 157.063 25.1613 156.668 24.5C156.284 23.828 156.092 23.0707 156.092 22.228C156.092 21.396 156.279 20.6493 156.652 19.988C157.036 19.316 157.564 18.7933 158.236 18.42C158.908 18.0467 159.666 17.86 160.508 17.86C161.34 17.86 162.082 18.0467 162.732 18.42C163.394 18.7827 163.906 19.3 164.268 19.972C164.642 20.6333 164.828 21.4013 164.828 22.276ZM160.508 19.46C159.868 19.46 159.324 19.652 158.876 20.036C158.439 20.4093 158.172 20.9107 158.076 21.54H162.924C162.839 20.9213 162.578 20.42 162.14 20.036C161.703 19.652 161.159 19.46 160.508 19.46ZM175.416 26.5V20.836L172.536 25.604H171.672L168.84 20.82V26.5H167.016V17.956H169.112L172.152 23.3L175.336 17.956H177.208L177.224 26.5H175.416ZM179.907 17.956H181.907V23.588L186.627 17.956H188.451V26.5H186.451V20.868L181.747 26.5H179.907V17.956ZM199.205 17.956L195.205 27.188C194.832 28.116 194.378 28.7667 193.845 29.14C193.312 29.524 192.666 29.716 191.909 29.716C191.482 29.716 191.061 29.6467 190.645 29.508C190.229 29.3693 189.888 29.1773 189.621 28.932L190.421 27.46C190.613 27.6413 190.837 27.7853 191.093 27.892C191.36 27.9987 191.626 28.052 191.893 28.052C192.245 28.052 192.533 27.9613 192.757 27.78C192.992 27.5987 193.205 27.2947 193.397 26.868L193.541 26.532L189.813 17.956H191.893L194.581 24.276L197.285 17.956H199.205ZM208.994 26.5V20.836L206.114 25.604H205.25L202.418 20.82V26.5H200.594V17.956H202.69L205.73 23.3L208.914 17.956H210.786L210.802 26.5H208.994ZM74.896 43.076H73.344V46.5H71.344V37.956H73.344V41.412H74.944L77.472 37.956H79.616L76.512 42.068L79.824 46.5H77.472L74.896 43.076ZM84.2624 37.86C85.521 37.86 86.481 38.164 87.1424 38.772C87.8144 39.3693 88.1504 40.276 88.1504 41.492V46.5H86.2624V45.46C86.017 45.8333 85.665 46.1213 85.2064 46.324C84.7584 46.516 84.2144 46.612 83.5744 46.612C82.9344 46.612 82.3744 46.5053 81.8944 46.292C81.4144 46.068 81.041 45.764 80.7744 45.38C80.5184 44.9853 80.3904 44.5427 80.3904 44.052C80.3904 43.284 80.673 42.6707 81.2384 42.212C81.8144 41.7427 82.7157 41.508 83.9424 41.508H86.1504V41.38C86.1504 40.7827 85.969 40.324 85.6064 40.004C85.2544 39.684 84.7264 39.524 84.0224 39.524C83.5424 39.524 83.0677 39.5987 82.5984 39.748C82.1397 39.8973 81.7504 40.1053 81.4304 40.372L80.6464 38.916C81.0944 38.5747 81.633 38.3133 82.2624 38.132C82.8917 37.9507 83.5584 37.86 84.2624 37.86ZM83.9904 45.156C84.4917 45.156 84.9344 45.044 85.3184 44.82C85.713 44.5853 85.9904 44.2547 86.1504 43.828V42.836H84.0864C82.9344 42.836 82.3584 43.2147 82.3584 43.972C82.3584 44.3347 82.5024 44.6227 82.7904 44.836C83.0784 45.0493 83.4784 45.156 83.9904 45.156ZM97.8733 37.956V46.5H95.8733V43.188C95.0519 43.5827 94.1933 43.78 93.2973 43.78C92.1986 43.78 91.3559 43.5293 90.7693 43.028C90.1826 42.516 89.8893 41.7373 89.8893 40.692V37.956H91.8893V40.564C91.8893 41.108 92.0493 41.5133 92.3693 41.78C92.6893 42.0467 93.1426 42.18 93.7293 42.18C94.4759 42.18 95.1906 42.02 95.8733 41.7V37.956H97.8733ZM108.563 42.276C108.563 42.4147 108.552 42.612 108.531 42.868H101.827C101.944 43.4973 102.248 43.9987 102.739 44.372C103.24 44.7347 103.859 44.916 104.595 44.916C105.533 44.916 106.307 44.6067 106.915 43.988L107.987 45.22C107.603 45.6787 107.117 46.0253 106.531 46.26C105.944 46.4947 105.283 46.612 104.547 46.612C103.608 46.612 102.781 46.4253 102.067 46.052C101.352 45.6787 100.797 45.1613 100.403 44.5C100.019 43.828 99.8268 43.0707 99.8268 42.228C99.8268 41.396 100.013 40.6493 100.387 39.988C100.771 39.316 101.299 38.7933 101.971 38.42C102.643 38.0467 103.4 37.86 104.243 37.86C105.075 37.86 105.816 38.0467 106.467 38.42C107.128 38.7827 107.64 39.3 108.003 39.972C108.376 40.6333 108.563 41.4013 108.563 42.276ZM104.243 39.46C103.603 39.46 103.059 39.652 102.611 40.036C102.173 40.4093 101.907 40.9107 101.811 41.54H106.659C106.573 40.9213 106.312 40.42 105.875 40.036C105.437 39.652 104.893 39.46 104.243 39.46ZM114.638 46.612C113.753 46.612 112.958 46.4253 112.254 46.052C111.55 45.6787 111.001 45.1613 110.606 44.5C110.212 43.828 110.014 43.0707 110.014 42.228C110.014 41.3853 110.212 40.6333 110.606 39.972C111.001 39.3107 111.545 38.7933 112.238 38.42C112.942 38.0467 113.742 37.86 114.638 37.86C115.481 37.86 116.217 38.0307 116.846 38.372C117.486 38.7133 117.966 39.204 118.286 39.844L116.75 40.74C116.505 40.3453 116.196 40.052 115.822 39.86C115.46 39.6573 115.06 39.556 114.622 39.556C113.876 39.556 113.257 39.8013 112.766 40.292C112.276 40.772 112.03 41.4173 112.03 42.228C112.03 43.0387 112.27 43.6893 112.75 44.18C113.241 44.66 113.865 44.9 114.622 44.9C115.06 44.9 115.46 44.804 115.822 44.612C116.196 44.4093 116.505 44.1107 116.75 43.716L118.286 44.612C117.956 45.252 117.47 45.748 116.83 46.1C116.201 46.4413 115.47 46.612 114.638 46.612ZM126.737 39.652H123.745V46.5H121.745V39.652H118.737V37.956H126.737V39.652ZM134.38 42.052C135.436 42.372 135.964 43.0547 135.964 44.1C135.964 44.868 135.676 45.46 135.1 45.876C134.524 46.292 133.67 46.5 132.54 46.5H128.188V37.956H132.364C133.409 37.956 134.225 38.148 134.812 38.532C135.398 38.916 135.692 39.46 135.692 40.164C135.692 40.6013 135.574 40.98 135.34 41.3C135.116 41.62 134.796 41.8707 134.38 42.052ZM130.092 41.524H132.188C133.222 41.524 133.74 41.1667 133.74 40.452C133.74 39.7587 133.222 39.412 132.188 39.412H130.092V41.524ZM132.38 45.044C133.478 45.044 134.028 44.6867 134.028 43.972C134.028 43.5987 133.9 43.3213 133.644 43.14C133.388 42.948 132.988 42.852 132.444 42.852H130.092V45.044H132.38ZM141.902 46.612C141.038 46.612 140.259 46.4253 139.566 46.052C138.873 45.6787 138.329 45.1613 137.934 44.5C137.55 43.828 137.358 43.0707 137.358 42.228C137.358 41.3853 137.55 40.6333 137.934 39.972C138.329 39.3107 138.873 38.7933 139.566 38.42C140.259 38.0467 141.038 37.86 141.902 37.86C142.777 37.86 143.561 38.0467 144.254 38.42C144.947 38.7933 145.486 39.3107 145.87 39.972C146.265 40.6333 146.462 41.3853 146.462 42.228C146.462 43.0707 146.265 43.828 145.87 44.5C145.486 45.1613 144.947 45.6787 144.254 46.052C143.561 46.4253 142.777 46.612 141.902 46.612ZM141.902 44.9C142.638 44.9 143.246 44.6547 143.726 44.164C144.206 43.6733 144.446 43.028 144.446 42.228C144.446 41.428 144.206 40.7827 143.726 40.292C143.246 39.8013 142.638 39.556 141.902 39.556C141.166 39.556 140.558 39.8013 140.078 40.292C139.609 40.7827 139.374 41.428 139.374 42.228C139.374 43.028 139.609 43.6733 140.078 44.164C140.558 44.6547 141.166 44.9 141.902 44.9Z" fill="white"/>
<g clip-path="url(#clip0_0_43)">
<path d="M30 60.5C46.5685 60.5 60 47.0685 60 30.5C60 13.9315 46.5685 0.5 30 0.5C13.4315 0.5 0 13.9315 0 30.5C0 47.0685 13.4315 60.5 30 60.5Z" fill="url(#paint0_linear_0_43)"/>
<path d="M30 55.5001C16.2151 55.5001 5 44.2851 5 30.5001C5 16.7152 16.2151 5.50012 30 5.50012C43.7854 5.50012 55 16.7152 55 30.5001C55 44.2851 43.7854 55.5001 30 55.5001Z" fill="url(#paint1_linear_0_43)"/>
<path opacity="0.3" d="M42.8493 23.52C41.6614 23.52 40.6986 24.4829 40.6986 25.6708C40.6986 26.2526 40.9318 26.7784 41.3071 27.1657L36.8919 31.4461L32.3114 24.1819C33.0379 23.724 33.5241 22.9202 33.5241 21.9979C33.5241 20.5694 32.3661 19.4113 30.9375 19.4113C29.509 19.4113 28.3509 20.5694 28.3509 21.9979C28.3509 22.9184 28.8352 23.7214 29.5596 24.1799L24.981 31.4461L20.5676 27.1659C20.9431 26.7788 21.1765 26.2528 21.1765 25.6708C21.1765 24.4829 20.2136 23.52 19.0257 23.52C17.8379 23.52 16.875 24.4829 16.875 25.6708C16.875 26.8585 17.8379 27.8214 19.0257 27.8214C19.1564 27.8214 19.2829 27.8053 19.4072 27.7829L21.4466 37.6896H40.4284L42.4677 27.7829C42.592 27.8054 42.7186 27.8214 42.8493 27.8214C44.0371 27.8214 45 26.8585 45 25.6708C45 24.4829 44.0371 23.52 42.8493 23.52Z" fill="black"/>
<path opacity="0.3" d="M21.6879 38.8615L20.571 43.4637H41.3025L40.1857 38.8615H21.6879Z" fill="black"/>
<path d="M41.9118 22.5825C40.7239 22.5825 39.7611 23.5454 39.7611 24.7333C39.7611 25.3151 39.9943 25.8409 40.3696 26.2282L35.9544 30.5086L31.3739 23.2444C32.1004 22.7865 32.5866 21.9827 32.5866 21.0604C32.5866 19.6319 31.4286 18.4738 30 18.4738C28.5715 18.4738 27.4134 19.6319 27.4134 21.0604C27.4134 21.9809 27.8977 22.7839 28.6221 23.2424L24.0435 30.5086L19.6301 26.2284C20.0056 25.8413 20.239 25.3153 20.239 24.7333C20.239 23.5454 19.2761 22.5825 18.0882 22.5825C16.9004 22.5825 15.9375 23.5454 15.9375 24.7333C15.9375 25.921 16.9004 26.8839 18.0882 26.8839C18.2189 26.8839 18.3454 26.8678 18.4697 26.8454L20.5091 36.7521H39.4909L41.5302 26.8454C41.6545 26.8679 41.7811 26.8839 41.9118 26.8839C43.0996 26.8839 44.0625 25.921 44.0625 24.7333C44.0625 23.5454 43.0996 22.5825 41.9118 22.5825Z" fill="white"/>
<path d="M20.7504 37.924L19.6335 42.5262H40.365L39.2482 37.924H20.7504Z" fill="white"/>
</g>
<defs>
<linearGradient id="paint0_linear_0_43" x1="-3.16406e-07" y1="30.5" x2="60" y2="30.5" gradientUnits="userSpaceOnUse">
<stop stop-color="#FFCA05"/>
<stop offset="1" stop-color="#FAAC18"/>
</linearGradient>
<linearGradient id="paint1_linear_0_43" x1="5" y1="30.5001" x2="55" y2="30.5001" gradientUnits="userSpaceOnUse">
<stop stop-color="#FFB72B"/>
<stop offset="1" stop-color="#FFD435"/>
</linearGradient>
<clipPath id="clip0_0_43">
<rect width="60" height="60" fill="white" transform="translate(0 0.5)"/>
</clipPath>
</defs>
</svg>
