<svg width="276" height="61" viewBox="0 0 276 61" fill="none" xmlns="http://www.w3.org/2000/svg">
<rect x="25" y="0.5" width="250" height="60" rx="10" stroke="#FFB72B"/>
<mask id="mask0_0_34" style="mask-type:alpha" maskUnits="userSpaceOnUse" x="0" y="0" width="60" height="61">
<circle cx="30" cy="30.5" r="30" fill="#D9D9D9"/>
</mask>
<g mask="url(#mask0_0_34)">
<path fill-rule="evenodd" clip-rule="evenodd" d="M0 0.5H60V60.5H0V0.5Z" fill="white"/>
<path fill-rule="evenodd" clip-rule="evenodd" d="M0 0.5H20.0039V60.5H0V0.5Z" fill="#009246"/>
<path fill-rule="evenodd" clip-rule="evenodd" d="M39.9961 0.5H60V60.5H39.9961V0.5Z" fill="#CE2B37"/>
</g>
<path d="M76.72 26.66C75.5893 26.66 74.5653 26.4147 73.648 25.924C72.7413 25.4227 72.0267 24.7347 71.504 23.86C70.992 22.9853 70.736 21.9987 70.736 20.9C70.736 19.8013 70.9973 18.8147 71.52 17.94C72.0427 17.0653 72.7573 16.3827 73.664 15.892C74.5813 15.3907 75.6053 15.14 76.736 15.14C77.6533 15.14 78.4907 15.3 79.248 15.62C80.0053 15.94 80.6453 16.404 81.168 17.012L79.824 18.276C79.0133 17.4013 78.016 16.964 76.832 16.964C76.064 16.964 75.376 17.1347 74.768 17.476C74.16 17.8067 73.6853 18.2707 73.344 18.868C73.0027 19.4653 72.832 20.1427 72.832 20.9C72.832 21.6573 73.0027 22.3347 73.344 22.932C73.6853 23.5293 74.16 23.9987 74.768 24.34C75.376 24.6707 76.064 24.836 76.832 24.836C78.016 24.836 79.0133 24.3933 79.824 23.508L81.168 24.788C80.6453 25.396 80 25.86 79.232 26.18C78.4747 26.5 77.6373 26.66 76.72 26.66ZM91.0673 17.956V26.5H89.0833V19.652H84.8753V26.5H82.8753V17.956H91.0673ZM101.766 22.276C101.766 22.4147 101.755 22.612 101.734 22.868H95.0299C95.1472 23.4973 95.4512 23.9987 95.9419 24.372C96.4432 24.7347 97.0619 24.916 97.7979 24.916C98.7365 24.916 99.5099 24.6067 100.118 23.988L101.19 25.22C100.806 25.6787 100.321 26.0253 99.7339 26.26C99.1472 26.4947 98.4859 26.612 97.7499 26.612C96.8112 26.612 95.9845 26.4253 95.2699 26.052C94.5552 25.6787 94.0005 25.1613 93.6059 24.5C93.2219 23.828 93.0299 23.0707 93.0299 22.228C93.0299 21.396 93.2165 20.6493 93.5899 19.988C93.9739 19.316 94.5019 18.7933 95.1739 18.42C95.8459 18.0467 96.6032 17.86 97.4459 17.86C98.2779 17.86 99.0192 18.0467 99.6699 18.42C100.331 18.7827 100.843 19.3 101.206 19.972C101.579 20.6333 101.766 21.4013 101.766 22.276ZM97.4459 19.46C96.8059 19.46 96.2619 19.652 95.8139 20.036C95.3765 20.4093 95.1099 20.9107 95.0139 21.54H99.8619C99.7765 20.9213 99.5152 20.42 99.0779 20.036C98.6405 19.652 98.0965 19.46 97.4459 19.46ZM113.329 24.804V28.468H111.457V26.5H103.953V17.956H105.953V24.804H110.033V17.956H112.033V24.804H113.329ZM115.11 17.956H117.11V23.588L121.83 17.956H123.654V26.5H121.654V20.868L116.95 26.5H115.11V17.956ZM129.528 17.86C130.787 17.86 131.747 18.164 132.408 18.772C133.08 19.3693 133.416 20.276 133.416 21.492V26.5H131.528V25.46C131.283 25.8333 130.931 26.1213 130.472 26.324C130.024 26.516 129.48 26.612 128.84 26.612C128.2 26.612 127.64 26.5053 127.16 26.292C126.68 26.068 126.307 25.764 126.04 25.38C125.784 24.9853 125.656 24.5427 125.656 24.052C125.656 23.284 125.939 22.6707 126.504 22.212C127.08 21.7427 127.981 21.508 129.208 21.508H131.416V21.38C131.416 20.7827 131.235 20.324 130.872 20.004C130.52 19.684 129.992 19.524 129.288 19.524C128.808 19.524 128.333 19.5987 127.864 19.748C127.405 19.8973 127.016 20.1053 126.696 20.372L125.912 18.916C126.36 18.5747 126.899 18.3133 127.528 18.132C128.157 17.9507 128.824 17.86 129.528 17.86ZM129.256 25.156C129.757 25.156 130.2 25.044 130.584 24.82C130.979 24.5853 131.256 24.2547 131.416 23.828V22.836H129.352C128.2 22.836 127.624 23.2147 127.624 23.972C127.624 24.3347 127.768 24.6227 128.056 24.836C128.344 25.0493 128.744 25.156 129.256 25.156ZM143.635 17.956V26.5H141.635V19.652H138.435L138.355 21.348C138.302 22.4787 138.195 23.428 138.035 24.196C137.886 24.9533 137.624 25.556 137.251 26.004C136.888 26.4413 136.387 26.66 135.747 26.66C135.448 26.66 135.08 26.6013 134.643 26.484L134.739 24.804C134.888 24.836 135.016 24.852 135.123 24.852C135.528 24.852 135.832 24.692 136.035 24.372C136.238 24.0413 136.366 23.652 136.419 23.204C136.483 22.7453 136.536 22.0947 136.579 21.252L136.723 17.956H143.635ZM150.616 20.772C151.704 20.772 152.536 21.0173 153.112 21.508C153.699 21.9987 153.992 22.692 153.992 23.588C153.992 24.5267 153.672 25.252 153.032 25.764C152.392 26.276 151.491 26.5267 150.328 26.516L146.328 26.5V17.956H148.328V20.756L150.616 20.772ZM150.152 25.044C150.739 25.0547 151.187 24.932 151.496 24.676C151.806 24.42 151.96 24.0467 151.96 23.556C151.96 23.076 151.811 22.724 151.512 22.5C151.214 22.276 150.76 22.1587 150.152 22.148L148.328 22.132V25.028L150.152 25.044ZM155.75 17.956H157.75V21.428H162.054V17.956H164.054V26.5H162.054V23.124H157.75V26.5H155.75V17.956ZM170.543 26.612C169.679 26.612 168.9 26.4253 168.207 26.052C167.513 25.6787 166.969 25.1613 166.575 24.5C166.191 23.828 165.999 23.0707 165.999 22.228C165.999 21.3853 166.191 20.6333 166.575 19.972C166.969 19.3107 167.513 18.7933 168.207 18.42C168.9 18.0467 169.679 17.86 170.543 17.86C171.417 17.86 172.201 18.0467 172.895 18.42C173.588 18.7933 174.127 19.3107 174.511 19.972C174.905 20.6333 175.103 21.3853 175.103 22.228C175.103 23.0707 174.905 23.828 174.511 24.5C174.127 25.1613 173.588 25.6787 172.895 26.052C172.201 26.4253 171.417 26.612 170.543 26.612ZM170.543 24.9C171.279 24.9 171.887 24.6547 172.367 24.164C172.847 23.6733 173.087 23.028 173.087 22.228C173.087 21.428 172.847 20.7827 172.367 20.292C171.887 19.8013 171.279 19.556 170.543 19.556C169.807 19.556 169.199 19.8013 168.719 20.292C168.249 20.7827 168.015 21.428 168.015 22.228C168.015 23.028 168.249 23.6733 168.719 24.164C169.199 24.6547 169.807 24.9 170.543 24.9ZM75.152 46.612C74.288 46.612 73.5093 46.4253 72.816 46.052C72.1227 45.6787 71.5787 45.1613 71.184 44.5C70.8 43.828 70.608 43.0707 70.608 42.228C70.608 41.3853 70.8 40.6333 71.184 39.972C71.5787 39.3107 72.1227 38.7933 72.816 38.42C73.5093 38.0467 74.288 37.86 75.152 37.86C76.0267 37.86 76.8107 38.0467 77.504 38.42C78.1973 38.7933 78.736 39.3107 79.12 39.972C79.5147 40.6333 79.712 41.3853 79.712 42.228C79.712 43.0707 79.5147 43.828 79.12 44.5C78.736 45.1613 78.1973 45.6787 77.504 46.052C76.8107 46.4253 76.0267 46.612 75.152 46.612ZM75.152 44.9C75.888 44.9 76.496 44.6547 76.976 44.164C77.456 43.6733 77.696 43.028 77.696 42.228C77.696 41.428 77.456 40.7827 76.976 40.292C76.496 39.8013 75.888 39.556 75.152 39.556C74.416 39.556 73.808 39.8013 73.328 40.292C72.8587 40.7827 72.624 41.428 72.624 42.228C72.624 43.028 72.8587 43.6733 73.328 44.164C73.808 44.6547 74.416 44.9 75.152 44.9ZM86.3118 38.372C87.1224 38.372 87.8371 38.548 88.4558 38.9C89.0744 39.2413 89.5544 39.7213 89.8958 40.34C90.2478 40.9587 90.4238 41.668 90.4238 42.468C90.4238 43.2893 90.2318 44.02 89.8478 44.66C89.4638 45.2893 88.9251 45.78 88.2318 46.132C87.5384 46.484 86.7491 46.66 85.8638 46.66C84.3811 46.66 83.2344 46.1693 82.4238 45.188C81.6131 44.2067 81.2078 42.7933 81.2078 40.948C81.2078 39.2307 81.5758 37.8707 82.3118 36.868C83.0478 35.8653 84.1731 35.204 85.6878 34.884L89.6558 34.036L89.9438 35.828L86.3438 36.564C85.3091 36.7773 84.5358 37.14 84.0238 37.652C83.5118 38.164 83.2131 38.884 83.1278 39.812C83.5118 39.3533 83.9758 39.0013 84.5198 38.756C85.0638 38.5 85.6611 38.372 86.3118 38.372ZM85.9118 45.044C86.6478 45.044 87.2398 44.8093 87.6878 44.34C88.1464 43.86 88.3758 43.252 88.3758 42.516C88.3758 41.78 88.1464 41.188 87.6878 40.74C87.2398 40.292 86.6478 40.068 85.9118 40.068C85.1651 40.068 84.5624 40.292 84.1038 40.74C83.6451 41.188 83.4158 41.78 83.4158 42.516C83.4158 43.2627 83.6451 43.8707 84.1038 44.34C84.5731 44.8093 85.1758 45.044 85.9118 45.044ZM100.189 37.956L96.1893 47.188C95.8159 48.116 95.3626 48.7667 94.8293 49.14C94.2959 49.524 93.6506 49.716 92.8932 49.716C92.4666 49.716 92.0453 49.6467 91.6293 49.508C91.2133 49.3693 90.8719 49.1773 90.6052 48.932L91.4053 47.46C91.5973 47.6413 91.8213 47.7853 92.0773 47.892C92.3439 47.9987 92.6106 48.052 92.8773 48.052C93.2293 48.052 93.5173 47.9613 93.7413 47.78C93.9759 47.5987 94.1893 47.2947 94.3813 46.868L94.5253 46.532L90.7973 37.956H92.8773L95.5653 44.276L98.2693 37.956H100.189ZM108.826 37.956V46.5H106.826V43.188C106.005 43.5827 105.146 43.78 104.25 43.78C103.152 43.78 102.309 43.5293 101.722 43.028C101.136 42.516 100.842 41.7373 100.842 40.692V37.956H102.842V40.564C102.842 41.108 103.002 41.5133 103.322 41.78C103.642 42.0467 104.096 42.18 104.682 42.18C105.429 42.18 106.144 42.02 106.826 41.7V37.956H108.826ZM119.516 42.276C119.516 42.4147 119.505 42.612 119.484 42.868H112.78C112.897 43.4973 113.201 43.9987 113.692 44.372C114.193 44.7347 114.812 44.916 115.548 44.916C116.487 44.916 117.26 44.6067 117.868 43.988L118.94 45.22C118.556 45.6787 118.071 46.0253 117.484 46.26C116.897 46.4947 116.236 46.612 115.5 46.612C114.561 46.612 113.735 46.4253 113.02 46.052C112.305 45.6787 111.751 45.1613 111.356 44.5C110.972 43.828 110.78 43.0707 110.78 42.228C110.78 41.396 110.967 40.6493 111.34 39.988C111.724 39.316 112.252 38.7933 112.924 38.42C113.596 38.0467 114.353 37.86 115.196 37.86C116.028 37.86 116.769 38.0467 117.42 38.42C118.081 38.7827 118.593 39.3 118.956 39.972C119.329 40.6333 119.516 41.4013 119.516 42.276ZM115.196 39.46C114.556 39.46 114.012 39.652 113.564 40.036C113.127 40.4093 112.86 40.9107 112.764 41.54H117.612C117.527 40.9213 117.265 40.42 116.828 40.036C116.391 39.652 115.847 39.46 115.196 39.46ZM121.703 37.956H123.703V41.428H128.007V37.956H130.007V46.5H128.007V43.124H123.703V46.5H121.703V37.956ZM132.688 37.956H134.688V41.428H138.992V37.956H140.992V46.5H138.992V43.124H134.688V46.5H132.688V37.956ZM147.832 40.772C148.92 40.772 149.752 41.0173 150.328 41.508C150.904 41.9987 151.192 42.692 151.192 43.588C151.192 44.5267 150.872 45.252 150.232 45.764C149.603 46.276 148.707 46.5267 147.544 46.516L143.672 46.5V37.956H145.672V40.756L147.832 40.772ZM152.296 37.956H154.296V46.5H152.296V37.956ZM147.368 45.044C147.955 45.0547 148.403 44.932 148.712 44.676C149.021 44.42 149.176 44.0467 149.176 43.556C149.176 43.076 149.027 42.724 148.728 42.5C148.429 42.276 147.976 42.1587 147.368 42.148L145.672 42.132V45.028L147.368 45.044ZM164.985 42.276C164.985 42.4147 164.974 42.612 164.953 42.868H158.249C158.366 43.4973 158.67 43.9987 159.161 44.372C159.662 44.7347 160.281 44.916 161.017 44.916C161.955 44.916 162.729 44.6067 163.337 43.988L164.409 45.22C164.025 45.6787 163.539 46.0253 162.953 46.26C162.366 46.4947 161.705 46.612 160.969 46.612C160.03 46.612 159.203 46.4253 158.489 46.052C157.774 45.6787 157.219 45.1613 156.825 44.5C156.441 43.828 156.249 43.0707 156.249 42.228C156.249 41.396 156.435 40.6493 156.809 39.988C157.193 39.316 157.721 38.7933 158.393 38.42C159.065 38.0467 159.822 37.86 160.665 37.86C161.497 37.86 162.238 38.0467 162.889 38.42C163.55 38.7827 164.062 39.3 164.425 39.972C164.798 40.6333 164.985 41.4013 164.985 42.276ZM160.665 39.46C160.025 39.46 159.481 39.652 159.033 40.036C158.595 40.4093 158.329 40.9107 158.233 41.54H163.081C162.995 40.9213 162.734 40.42 162.297 40.036C161.859 39.652 161.315 39.46 160.665 39.46ZM179.994 46.5V40.836L177.114 45.604H176.25L173.418 40.82V46.5H171.594V37.956H173.69L176.73 43.3L179.914 37.956H181.786L181.802 46.5H179.994ZM192.485 42.276C192.485 42.4147 192.474 42.612 192.453 42.868H185.749C185.866 43.4973 186.17 43.9987 186.661 44.372C187.162 44.7347 187.781 44.916 188.517 44.916C189.455 44.916 190.229 44.6067 190.837 43.988L191.909 45.22C191.525 45.6787 191.039 46.0253 190.453 46.26C189.866 46.4947 189.205 46.612 188.469 46.612C187.53 46.612 186.703 46.4253 185.989 46.052C185.274 45.6787 184.719 45.1613 184.325 44.5C183.941 43.828 183.749 43.0707 183.749 42.228C183.749 41.396 183.935 40.6493 184.309 39.988C184.693 39.316 185.221 38.7933 185.893 38.42C186.565 38.0467 187.322 37.86 188.165 37.86C188.997 37.86 189.738 38.0467 190.389 38.42C191.05 38.7827 191.562 39.3 191.925 39.972C192.298 40.6333 192.485 41.4013 192.485 42.276ZM188.165 39.46C187.525 39.46 186.981 39.652 186.533 40.036C186.095 40.4093 185.829 40.9107 185.733 41.54H190.581C190.495 40.9213 190.234 40.42 189.797 40.036C189.359 39.652 188.815 39.46 188.165 39.46ZM199.782 46.5L197.59 43.54L195.382 46.5H193.174L196.502 42.164L193.318 37.956H195.542L197.638 40.756L199.734 37.956H201.894L198.694 42.132L202.038 46.5H199.782ZM206.497 37.86C207.755 37.86 208.715 38.164 209.377 38.772C210.049 39.3693 210.385 40.276 210.385 41.492V46.5H208.497V45.46C208.251 45.8333 207.899 46.1213 207.441 46.324C206.993 46.516 206.449 46.612 205.809 46.612C205.169 46.612 204.609 46.5053 204.129 46.292C203.649 46.068 203.275 45.764 203.009 45.38C202.753 44.9853 202.625 44.5427 202.625 44.052C202.625 43.284 202.907 42.6707 203.473 42.212C204.049 41.7427 204.95 41.508 206.177 41.508H208.385V41.38C208.385 40.7827 208.203 40.324 207.841 40.004C207.489 39.684 206.961 39.524 206.257 39.524C205.777 39.524 205.302 39.5987 204.833 39.748C204.374 39.8973 203.985 40.1053 203.665 40.372L202.881 38.916C203.329 38.5747 203.867 38.3133 204.497 38.132C205.126 37.9507 205.793 37.86 206.497 37.86ZM206.225 45.156C206.726 45.156 207.169 45.044 207.553 44.82C207.947 44.5853 208.225 44.2547 208.385 43.828V42.836H206.321C205.169 42.836 204.593 43.2147 204.593 43.972C204.593 44.3347 204.737 44.6227 205.025 44.836C205.313 45.0493 205.713 45.156 206.225 45.156ZM212.86 37.956H214.86V41.428H219.164V37.956H221.164V46.5H219.164V43.124H214.86V46.5H212.86V37.956ZM223.844 37.956H225.844V43.588L230.564 37.956H232.388V46.5H230.388V40.868L225.684 46.5H223.844V37.956ZM238.63 43.076H237.078V46.5H235.078V37.956H237.078V41.412H238.678L241.206 37.956H243.35L240.246 42.068L243.558 46.5H241.206L238.63 43.076ZM244.969 37.956H246.969V43.588L251.689 37.956H253.513V46.5H251.513V40.868L246.809 46.5H244.969V37.956Z" fill="white"/>
</svg>
